<?xml version="1.0" standalone="no"?>
<!DOCTYPE svg PUBLIC "-//W3C//DTD SVG 20010904//EN"
 "http://www.w3.org/TR/2001/REC-SVG-20010904/DTD/svg10.dtd">
<svg version="1.0" xmlns="http://www.w3.org/2000/svg"
 width="500.000000pt" height="500.000000pt" viewBox="0 0 500.000000 500.000000"
 preserveAspectRatio="xMidYMid meet">
<metadata>
Created by potrace 1.14, written by Peter Selinger 2001-2017
</metadata>
<g transform="translate(0.000000,500.000000) scale(0.100000,-0.100000)"
fill="#000000" stroke="none">
<path d="M2305 4798 c-104 -60 -208 -120 -230 -133 -47 -26 -344 -199 -395
-229 l-35 -21 0 -487 c0 -303 4 -491 10 -497 10 -10 294 -175 623 -363 l192
-110 0 -457 0 -457 -77 -46 c-235 -137 -673 -388 -695 -398 -23 -11 -39 -4
-184 80 -88 51 -179 104 -204 118 -25 14 -99 57 -165 95 -66 38 -145 83 -175
100 -30 17 -67 39 -82 49 -23 16 -31 17 -50 7 -13 -6 -206 -117 -430 -246
l-408 -235 0 -493 0 -493 78 -45 c42 -24 93 -53 112 -64 19 -11 176 -102 349
-202 l314 -181 116 66 c134 78 236 136 283 163 257 146 444 257 450 266 4 5 7
221 7 479 0 258 2 470 3 471 2 2 166 96 318 183 19 11 133 76 253 146 l219
126 56 -34 c32 -19 73 -43 92 -53 19 -11 139 -80 265 -153 127 -73 263 -151
302 -174 l73 -41 0 -55 c0 -30 1 -244 1 -476 l0 -420 422 -244 c232 -134 430
-243 439 -243 9 1 34 13 55 26 21 13 117 69 213 125 96 55 191 109 210 121 19
11 55 32 80 46 61 34 110 62 208 119 l82 48 -2 495 -3 494 -424 245 -423 244
-92 -52 c-161 -92 -570 -328 -586 -338 -8 -5 -44 -26 -80 -46 l-65 -37 -45 25
c-25 13 -204 116 -397 228 l-353 203 0 457 0 457 397 229 c219 126 404 235
413 244 13 13 15 77 14 500 l0 485 -60 36 c-62 38 -613 357 -699 404 -27 16
-59 34 -70 41 -11 8 -22 14 -25 13 -3 0 -90 -50 -195 -111z m227 23 c18 -10
89 -51 158 -91 69 -40 145 -84 169 -98 25 -14 68 -38 95 -55 28 -16 67 -39 86
-50 66 -37 245 -140 248 -142 3 -3 4 -917 0 -920 -2 -1 -180 -104 -395 -228
l-393 -226 -394 227 -395 227 -3 400 c-2 220 -2 427 0 460 l3 60 166 95 c91
52 268 154 392 227 124 72 227 132 228 132 1 1 17 -7 35 -18z m-1227 -3092
l340 -196 1 -458 0 -457 -75 -44 c-42 -24 -220 -127 -396 -228 l-320 -185 -40
23 c-67 38 -355 204 -670 386 l-80 46 0 459 0 459 47 27 c25 15 66 38 90 52
23 13 180 104 348 200 l304 176 56 -31 c30 -18 208 -121 395 -229z m3172 70
c153 -89 298 -172 321 -186 24 -14 65 -37 90 -52 l47 -27 0 -459 0 -458 -75
-45 c-41 -24 -98 -57 -127 -73 -29 -16 -102 -58 -164 -94 -61 -36 -116 -65
-120 -65 -5 0 -9 -4 -9 -10 0 -5 -4 -10 -9 -10 -4 0 -48 -23 -97 -52 -49 -28
-112 -64 -139 -79 l-50 -28 -260 151 c-143 83 -278 161 -300 173 -22 13 -83
48 -135 78 l-95 55 -1 451 c0 248 2 455 5 460 3 5 94 60 201 122 107 62 283
163 390 225 187 108 195 112 221 98 15 -7 153 -86 306 -175z"/>
</g>
</svg>
