<?xml version="1.0" standalone="no"?>
<!DOCTYPE svg PUBLIC "-//W3C//DTD SVG 20010904//EN"
 "http://www.w3.org/TR/2001/REC-SVG-20010904/DTD/svg10.dtd">
<svg version="1.0" xmlns="http://www.w3.org/2000/svg"
 width="512.000000pt" height="512.000000pt" viewBox="0 0 512.000000 512.000000"
 preserveAspectRatio="xMidYMid meet">
<metadata>
Created by potrace 1.14, written by Peter Selinger 2001-2017
</metadata>
<g transform="translate(0.000000,512.000000) scale(0.100000,-0.100000)"
fill="#000000" stroke="none">
<path d="M2453 4560 c-155 -32 -307 -178 -348 -335 -57 -218 44 -449 239 -544
34 -17 68 -32 78 -35 14 -4 16 -24 17 -165 l1 -161 -473 -1 c-259 0 -490 -2
-511 -5 -123 -12 -281 -80 -383 -164 -166 -135 -266 -334 -277 -549 -3 -46 -6
-84 -8 -85 -2 0 -34 -12 -73 -25 -226 -75 -398 -280 -430 -512 -7 -46 -7 -149
-1 -179 37 -176 96 -285 213 -389 76 -68 218 -140 274 -141 19 0 29 -20 29
-58 0 -53 33 -160 79 -252 38 -77 61 -110 131 -181 132 -134 260 -198 450
-226 44 -6 2173 -4 2215 2 335 52 595 308 640 631 11 79 12 81 54 88 61 9 195
82 257 139 140 127 204 266 210 453 3 89 0 125 -17 185 -58 209 -212 374 -410
439 -41 14 -75 25 -77 26 -2 1 -5 35 -7 75 -12 237 -117 438 -298 575 -101 77
-235 131 -362 148 -22 3 -252 5 -512 6 l-472 0 0 158 0 157 78 37 c203 96 310
314 261 533 -36 162 -167 299 -332 348 -51 16 -174 19 -235 7z m213 -258 c50
-26 78 -56 103 -112 40 -88 22 -180 -50 -252 -95 -96 -244 -91 -331 11 -112
131 -56 317 112 372 38 13 123 3 166 -19z m1052 -1246 c176 -57 303 -191 348
-367 15 -57 17 -144 17 -759 0 -713 -1 -731 -40 -825 -21 -49 -83 -142 -115
-171 -42 -38 -125 -94 -140 -94 -8 0 -18 -4 -24 -10 -5 -5 -38 -16 -74 -24
-56 -13 -211 -16 -1120 -16 -716 0 -1075 3 -1115 11 -189 34 -352 185 -401
371 -15 56 -17 143 -17 748 0 377 3 703 7 725 31 176 138 315 299 389 92 42
112 43 1242 41 994 -2 1084 -3 1133 -19z m-2924 -1160 c1 -197 -2 -363 -6
-369 -11 -18 -96 30 -151 85 -187 187 -139 499 96 626 23 12 46 21 51 19 6 -2
10 -144 10 -361z m3614 330 c134 -86 207 -237 188 -388 -15 -119 -106 -247
-215 -302 -28 -15 -51 -23 -52 -19 0 5 -2 174 -2 376 l-2 368 23 -6 c13 -3 40
-16 60 -29z"/>
<path d="M1600 2546 c-71 -15 -135 -52 -189 -111 -66 -71 -84 -123 -85 -235
-1 -84 2 -101 26 -151 112 -227 404 -276 580 -97 63 64 99 151 99 238 0 74 -7
106 -36 166 -70 144 -234 223 -395 190z m150 -263 c84 -75 22 -209 -90 -196
-99 12 -131 149 -48 207 37 26 103 21 138 -11z"/>
<path d="M3374 2549 c-161 -30 -282 -177 -285 -349 -1 -66 3 -85 30 -145 60
-137 198 -220 346 -211 137 9 240 79 303 206 24 49 27 66 27 150 -1 84 -4 101
-30 153 -72 144 -234 225 -391 196z m136 -259 c75 -54 54 -174 -36 -199 -47
-13 -81 -3 -115 37 -28 31 -31 40 -26 81 10 88 106 132 177 81z"/>
<path d="M2187 1454 c-42 -14 -77 -66 -77 -116 0 -30 8 -47 34 -76 l34 -37
376 -2 375 -1 36 31 c30 26 38 41 41 77 6 54 -21 104 -64 122 -37 15 -710 17
-755 2z"/>
</g>
</svg>
