<svg version="1.1" xmlns="http://www.w3.org/2000/svg" >
    <defs>
        <symbol id="logo" viewBox="0 0 297 210">
            <g stroke-width=".84065" aria-label="ONIUM">
            <path d="m104.25 152.07q-3.2281 0-5.6155-1.0088-2.3538-1.0088-3.7325-3.0263-1.345-2.0512-1.4459-5.0775-0.03363-1.4123-0.03363-2.8918 0-1.5132 0.03363-2.9927 0.10088-2.9927 1.4459-5.0439 1.3787-2.0512 3.7661-3.0936 2.3874-1.076 5.5819-1.076 3.1608 0 5.5483 1.076 2.3874 1.0424 3.7661 3.0936 1.3787 2.0512 1.4459 5.0439 0.0673 1.4796 0.0673 2.9927 0 1.4795-0.0673 2.8918-0.10088 3.0263-1.4796 5.0775-1.345 2.0176-3.7325 3.0263-2.3538 1.0088-5.5483 1.0088zm0-5.7164q1.4123 0 2.3202-0.84065 0.9079-0.87428 0.94153-2.7573 0.0673-1.4459 0.0673-2.791 0-1.3787-0.0673-2.791-0.0336-1.2442-0.47077-2.0512-0.40351-0.80702-1.1433-1.1769-0.70615-0.36988-1.6477-0.36988-0.94153 0-1.6813 0.36988-0.73978 0.36989-1.1769 1.1769-0.40352 0.80703-0.43714 2.0512-0.0336 1.4123-0.0336 2.791 0 1.345 0.0336 2.791 0.0673 1.883 0.94153 2.7573 0.9079 0.84065 2.3538 0.84065z"/>
            <path d="m119.41 151.73q-0.33626 0-0.60527-0.23538-0.26901-0.26901-0.26901-0.6389v-21.79q0-0.36988 0.26901-0.60526 0.26901-0.26901 0.60527-0.26901h4.4723q0.60526 0 0.87427 0.30263 0.26901 0.26901 0.36989 0.40351l6.927 11.13v-10.962q0-0.36988 0.26901-0.60526 0.26901-0.26901 0.60527-0.26901h5.0775q0.36988 0 0.60526 0.26901 0.26901 0.23538 0.26901 0.60526v21.79q0 0.36989-0.26901 0.6389-0.23538 0.23538-0.60526 0.23538h-4.4386q-0.63889 0-0.9079-0.26901-0.26901-0.30263-0.36988-0.43714l-6.927-10.491v10.323q0 0.36989-0.26901 0.6389-0.23538 0.23538-0.60527 0.23538z"/>
            <path d="m143.96 151.73q-0.33626 0-0.60527-0.23538-0.269-0.26901-0.269-0.6389v-21.79q0-0.36988 0.269-0.60526 0.26901-0.26901 0.60527-0.26901h5.7164q0.36989 0 0.60527 0.26901 0.26901 0.23538 0.26901 0.60526v21.79q0 0.36989-0.26901 0.6389-0.23538 0.23538-0.60527 0.23538z"/>
            <path d="m165.04 152.07q-3.1272 0-5.5147-0.97516-2.3538-0.97515-3.6989-3.0263-1.3114-2.0848-1.3114-5.2456v-13.753q0-0.36988 0.26901-0.60526 0.26901-0.26901 0.60527-0.26901h5.481q0.36988 0 0.60526 0.26901 0.26901 0.23538 0.26901 0.60526v13.652q0 1.7149 0.84065 2.5892 0.84065 0.87428 2.4211 0.87428 1.5804 0 2.3874-0.87428 0.84065-0.87427 0.84065-2.5892v-13.652q0-0.36988 0.26901-0.60526 0.26901-0.26901 0.63889-0.26901h5.4474q0.36989 0 0.60527 0.26901 0.26901 0.23538 0.26901 0.60526v13.753q0 3.1608-1.3114 5.2456-1.3114 2.0512-3.6652 3.0263-2.3538 0.97516-5.4474 0.97516z"/>
            <path d="m180.38 151.73q-0.36988 0-0.63889-0.23538-0.26901-0.26901-0.26901-0.6389v-21.79q0-0.36988 0.26901-0.60526 0.26901-0.26901 0.63889-0.26901h4.4723q0.60527 0 0.9079 0.33626 0.30264 0.33626 0.40351 0.47076l5.3802 9.348 5.3802-9.348q0.10088-0.1345 0.40352-0.47076 0.30263-0.33626 0.9079-0.33626h4.4723q0.36988 0 0.60526 0.26901 0.26901 0.23538 0.26901 0.60526v21.79q0 0.36989-0.26901 0.6389-0.23538 0.23538-0.60526 0.23538h-5.0439q-0.36989 0-0.6389-0.23538-0.23538-0.26901-0.23538-0.6389v-10.895l-3.0263 5.3129q-0.16813 0.269-0.43714 0.53801t-0.7734 0.26901h-2.0512q-0.47077 0-0.73977-0.26901-0.26901-0.26901-0.43714-0.53801l-3.0263-5.3129v10.895q0 0.36989-0.26901 0.6389-0.23538 0.23538-0.60527 0.23538z"/>
            </g>
            <g stroke-width=".44138" aria-label="computers">
            <path d="m97.524 168.03q-1.2359 0-2.101-0.47669-0.8651-0.49434-1.3241-1.4124-0.44138-0.91806-0.47669-2.1716-0.01765-0.26483-0.01765-0.70621t0.01765-0.7062q0.03531-1.2712 0.47669-2.1716 0.45903-0.91806 1.3241-1.3948 0.8651-0.49435 2.101-0.49435 0.93572 0 1.6066 0.26483 0.68855 0.24717 1.1299 0.6709 0.44138 0.40606 0.6709 0.90041 0.22951 0.49434 0.24717 0.97103 0.0177 0.17655-0.10593 0.28248-0.12359 0.10593-0.28248 0.10593h-0.24718q-0.17655 0-0.26482-0.0706-0.0706-0.0883-0.1589-0.30014-0.37076-1.0063-1.024-1.3948-0.63558-0.40607-1.5713-0.40607-1.2005 0-1.995 0.74151-0.77682 0.72386-0.82979 2.3834-0.03531 0.61793 0 1.2359 0.05297 1.6596 0.82979 2.4011 0.79448 0.72386 1.995 0.72386 0.93572 0 1.5713-0.38841 0.65324-0.40607 1.024-1.4124 0.0883-0.21186 0.1589-0.28248 0.0883-0.0883 0.26482-0.0883h0.24718q0.15889 0 0.28248 0.10593 0.12358 0.10593 0.10593 0.28248-0.0177 0.38841-0.1589 0.77682-0.14124 0.38841-0.44138 0.75917-0.28248 0.37076-0.7062 0.65324-0.42372 0.28248-1.024 0.44138-0.58262 0.17655-1.3241 0.17655z"/>
            <path d="m110.18 168.03q-1.2712 0-2.1363-0.52965-0.84744-0.52966-1.3065-1.4477-0.44137-0.91807-0.47668-2.048-0.0177-0.26483-0.0177-0.74152t0.0177-0.74151q0.0353-1.1476 0.47668-2.048 0.45904-0.91807 1.3065-1.4477 0.8651-0.52966 2.1363-0.52966t2.1186 0.52966q0.8651 0.52965 1.3065 1.4477 0.45903 0.90041 0.49434 2.048 0.0177 0.26482 0.0177 0.74151t-0.0177 0.74152q-0.0353 1.1299-0.49434 2.048-0.44138 0.91806-1.3065 1.4477-0.84744 0.52965-2.1186 0.52965zm0-1.024q1.2359 0 2.0127-0.79448t0.82979-2.2952q0.0177-0.26483 0.0177-0.65324t-0.0177-0.65324q-0.053-1.5183-0.82979-2.2952-0.77682-0.79448-2.0127-0.79448t-2.0127 0.79448q-0.77683 0.77682-0.82979 2.2952-0.0177 0.26483-0.0177 0.65324t0.0177 0.65324q0.053 1.5007 0.82979 2.2952 0.77682 0.79448 2.0127 0.79448z"/>
            <path d="m120.1 167.85q-0.17655 0-0.28248-0.10593t-0.10593-0.28248v-8.4038q0-0.17655 0.10593-0.28248t0.28248-0.10593h0.30014q0.17655 0 0.28248 0.10593t0.10593 0.28248v0.61793q0.44138-0.56497 1.0416-0.8651 0.61793-0.3178 1.483-0.3178 1.9774 0 2.8248 1.6596 0.40607-0.75917 1.1829-1.2005 0.79448-0.45904 1.8185-0.45904 0.93572 0 1.6772 0.44138 0.75917 0.42372 1.1829 1.2712 0.44138 0.84744 0.44138 2.1186v5.1376q0 0.17655-0.10593 0.28248t-0.28248 0.10593h-0.30014q-0.17655 0-0.28248-0.10593t-0.10593-0.28248v-4.9611q0-1.1652-0.33545-1.8008-0.33545-0.65324-0.88275-0.91806-0.54731-0.26483-1.1829-0.26483-0.52965 0-1.077 0.26483-0.54731 0.26482-0.91806 0.91806-0.3531 0.63559-0.3531 1.8008v4.9611q0 0.17655-0.10593 0.28248-0.10594 0.10593-0.28249 0.10593h-0.30013q-0.17655 0-0.28248-0.10593-0.10594-0.10593-0.10594-0.28248v-4.9611q0-1.1652-0.3531-1.8008-0.3531-0.65324-0.90041-0.91806-0.54731-0.26483-1.1476-0.26483-0.52965 0-1.077 0.26483-0.54731 0.26482-0.91807 0.91806-0.3531 0.63559-0.3531 1.7832v4.9787q0 0.17655-0.10593 0.28248t-0.28248 0.10593z"/>
            <path d="m138.79 171.21q-0.17655 0-0.28248-0.10593t-0.10593-0.28249v-11.758q0-0.17655 0.10593-0.28248t0.28248-0.10593h0.30014q0.17655 0 0.28248 0.10593t0.10593 0.28248v0.82979q0.44137-0.60028 1.1476-0.98869 0.72386-0.40607 1.8185-0.40607 1.0417 0 1.7479 0.37076 0.7062 0.3531 1.1476 0.95338 0.44138 0.60027 0.65324 1.3418 0.21186 0.74152 0.22952 1.5183 0.0177 0.26483 0.0177 0.58262t-0.0177 0.58262q-0.0177 0.77682-0.22952 1.5183-0.21186 0.74151-0.65324 1.3418-0.44138 0.60027-1.1476 0.97103-0.7062 0.3531-1.7479 0.3531-1.0946 0-1.8185-0.40607-0.70621-0.40607-1.1476-0.98868v4.1842q0 0.17656-0.10593 0.28249t-0.28248 0.10593zm3.5487-4.2019q1.0416 0 1.6419-0.45903 0.60027-0.45903 0.8651-1.2006 0.26482-0.74151 0.30013-1.589 0.0177-0.49434 0-0.98868-0.0353-0.84745-0.30013-1.589t-0.8651-1.2006q-0.60028-0.45903-1.6419-0.45903-1.0063 0-1.6243 0.47669-0.61792 0.47669-0.91806 1.2006-0.28248 0.7062-0.31779 1.4301-0.0177 0.26482-0.0177 0.68855 0 0.42372 0.0177 0.68855 0.0177 0.7062 0.31779 1.3948 0.31779 0.68855 0.93572 1.1476 0.63558 0.45903 1.6066 0.45903z"/>
            <path d="m155.26 168.03q-1.2005 0-1.995-0.512-0.77683-0.52965-1.1652-1.4301-0.37076-0.90041-0.37076-2.0127v-5.014q0-0.17655 0.10593-0.28248 0.10594-0.10593 0.28249-0.10593h0.30013q0.17655 0 0.28248 0.10593t0.10593 0.28248v4.9258q0 3.019 2.6306 3.019 1.2535 0 2.0127-0.79448 0.75917-0.81213 0.75917-2.2245v-4.9258q0-0.17655 0.10593-0.28248t0.28248-0.10593h0.30013q0.17656 0 0.28249 0.10593t0.10593 0.28248v8.4038q0 0.17655-0.10593 0.28248t-0.28249 0.10593h-0.30013q-0.17655 0-0.28248-0.10593t-0.10593-0.28248v-0.82979q-0.47669 0.61792-1.1476 1.0063-0.65323 0.38841-1.8008 0.38841z"/>
            <path d="m168.41 167.85q-0.91806 0-1.4477-0.38841-0.52965-0.38842-0.74151-1.0593t-0.21186-1.5007v-5.2083h-1.3771q-0.17655 0-0.28248-0.10593t-0.10593-0.28248v-0.24717q0-0.17655 0.10593-0.28248t0.28248-0.10593h1.3771v-2.9661q0-0.17655 0.10593-0.28248t0.28248-0.10593h0.30014q0.17655 0 0.28248 0.10593t0.10593 0.28248v2.9661h2.1892q0.17655 0 0.28248 0.10593t0.10593 0.28248v0.24717q0 0.17655-0.10593 0.28248t-0.28248 0.10593h-2.1892v5.1376q0 0.93572 0.30014 1.4654 0.31779 0.52965 1.1123 0.52965h0.95337q0.17655 0 0.28248 0.10593t0.10593 0.28248v0.24718q0 0.17655-0.10593 0.28248t-0.28248 0.10593z"/>
            <path d="m178.24 168.03q-1.7125 0-2.7189-1.1123-1.0063-1.1299-1.1476-2.9484-0.0177-0.26483-0.0177-0.70621t0.0177-0.7062q0.0883-1.2006 0.56497-2.1186 0.47669-0.91807 1.3065-1.4301 0.84744-0.512 1.995-0.512 1.2359 0 2.101 0.54731t1.3241 1.5713q0.47669 1.024 0.47669 2.4364v0.26483q0 0.17655-0.12359 0.28248-0.10593 0.10593-0.28248 0.10593h-6.2852t0 0.0706 0 0.10593q0.0353 0.79448 0.37075 1.5183 0.33545 0.7062 0.95338 1.1652 0.61793 0.44137 1.4654 0.44137 0.75917 0 1.2535-0.22951 0.512-0.22952 0.81214-0.49435 0.30013-0.28248 0.38841-0.42372 0.1589-0.22951 0.24717-0.26483 0.0883-0.053 0.28248-0.053h0.28249q0.15889 0 0.26482 0.10593 0.12359 0.0883 0.10593 0.24717-0.0177 0.24717-0.28248 0.61793-0.24717 0.3531-0.72386 0.7062-0.45903 0.35311-1.1299 0.58262-0.6709 0.22952-1.5007 0.22952zm-2.7895-5.3142h5.6143v-0.0706q0-0.88275-0.33545-1.589-0.33545-0.7062-0.97103-1.1123-0.63558-0.42372-1.5183-0.42372-0.88275 0-1.5183 0.42372-0.61793 0.40607-0.95337 1.1123-0.31779 0.70621-0.31779 1.589z"/>
            <path d="m188.04 167.85q-0.17655 0-0.28248-0.10593t-0.10593-0.28248v-8.3862q0-0.17655 0.10593-0.28248 0.10593-0.12358 0.28248-0.12358h0.28249q0.17655 0 0.28248 0.12358 0.12358 0.10593 0.12358 0.28248v0.81214q0.31779-0.61793 0.91807-0.91807 0.60027-0.30013 1.483-0.30013h0.65324q0.17655 0 0.28248 0.10593t0.10593 0.28248v0.24717q0 0.17655-0.10593 0.28248t-0.28248 0.10593h-0.75917q-1.0593 0-1.6772 0.61793t-0.61793 1.6772v5.4731q0 0.17655-0.12358 0.28248-0.10593 0.10593-0.28248 0.10593z"/>
            <path d="m199.88 168.03q-0.91806 0-1.589-0.24717-0.65323-0.24717-1.077-0.58262-0.42372-0.3531-0.63558-0.68855-0.19421-0.33545-0.21186-0.512-0.0177-0.1942 0.12358-0.28248 0.14124-0.10593 0.26483-0.10593h0.26483q0.10593 0 0.17655 0.0353 0.0883 0.0353 0.21186 0.19421 0.22952 0.30013 0.52965 0.58261 0.30014 0.26483 0.75917 0.42373 0.47669 0.15889 1.1829 0.15889 1.0593 0 1.7479-0.40606 0.68855-0.40607 0.68855-1.2006 0-0.49434-0.28248-0.79448-0.26483-0.30014-0.91807-0.52965-0.65324-0.22952-1.7655-0.47669-1.1123-0.26483-1.7125-0.63558-0.58262-0.37076-0.79448-0.84745-0.21187-0.49434-0.21187-1.0593 0-0.61792 0.35311-1.2005 0.3531-0.60028 1.0416-0.97103 0.7062-0.38842 1.7655-0.38842 0.8651 0 1.4654 0.22952 0.61793 0.22952 1.0063 0.56496 0.38841 0.3178 0.56496 0.63559 0.19421 0.31779 0.21187 0.512 0.0177 0.17655-0.10593 0.28248-0.12359 0.10593-0.28249 0.10593h-0.26482q-0.14124 0-0.22952-0.053-0.0883-0.0706-0.1589-0.17655-0.17655-0.28248-0.42372-0.52965t-0.67089-0.38841q-0.40607-0.1589-1.1123-0.1589-1.0593 0-1.5713 0.44138-0.51199 0.42372-0.51199 1.0946 0 0.38842 0.21186 0.68855 0.21186 0.28248 0.79448 0.52966 0.58261 0.22951 1.6949 0.49434 1.1299 0.24717 1.7832 0.61793 0.65324 0.3531 0.91807 0.84744 0.28248 0.49434 0.28248 1.1652 0 0.7062-0.40607 1.3065-0.38841 0.60027-1.1829 0.97103-0.77683 0.3531-1.9244 0.3531z"/>
            </g>
            <g transform="translate(8.2481 23.173)">
            <path d="m140.25 15.621-14.346 8.2832v16.564l14.346 8.2832 0.25586-0.14844 14.09-8.1348v-16.564zm0 1.1816 13.324 7.6914v15.385l-13.324 7.6914-13.324-7.6914v-15.385z" color="#000000" style="-inkscape-stroke:none"/>
            <path d="m140 63.693-13.834 7.9863 0.51172 0.88672 13.834-7.9883z" color="#000000" style="-inkscape-stroke:none"/>
            <path d="m139.74 48.16v16.271l14.09 8.1348 0.51172-0.88672-13.578-7.8398v-15.68z" color="#000000" style="-inkscape-stroke:none"/>
            <path d="m112.58 63.545-14.346 8.2832v16.564l14.346 8.2832 0.25586-0.14648 14.09-8.1367v-16.564zm0 1.1816 13.324 7.6914v15.385l-13.324 7.6914-13.322-7.6914v-15.385z" color="#000000" style="-inkscape-stroke:none"/>
            <path d="m167.92 63.545-14.346 8.2832v16.564l14.346 8.2832 0.25586-0.14648 14.09-8.1367v-16.564zm0 1.1816 13.322 7.6914v15.385l-13.322 7.6914-13.324-7.6914v-15.385z" color="#000000" style="-inkscape-stroke:none"/>
            </g>
        </symbol>
    </defs>
</svg>
