<?xml version="1.0" encoding="UTF-8" standalone="no"?>
<!-- Created with Inkscape (http://www.inkscape.org/) -->

<svg
   width="297mm"
   height="210mm"
   viewBox="0 0 297 210"
   version="1.1"
   id="svg5"
   inkscape:version="1.1 (c68e22c387, 2021-05-23)"
   sodipodi:docname="Onium Computers.svg"
   xmlns:inkscape="http://www.inkscape.org/namespaces/inkscape"
   xmlns:sodipodi="http://sodipodi.sourceforge.net/DTD/sodipodi-0.dtd"
   xmlns="http://www.w3.org/2000/svg"
   xmlns:svg="http://www.w3.org/2000/svg">
  <sodipodi:namedview
     id="namedview7"
     pagecolor="#ffffff"
     bordercolor="#666666"
     borderopacity="1.0"
     inkscape:pageshadow="2"
     inkscape:pageopacity="0.0"
     inkscape:pagecheckerboard="0"
     inkscape:document-units="mm"
     showgrid="false"
     showguides="true"
     inkscape:zoom="0.7500982"
     inkscape:cx="559.92668"
     inkscape:cy="428.61054"
     inkscape:window-width="1920"
     inkscape:window-height="1027"
     inkscape:window-x="3832"
     inkscape:window-y="750"
     inkscape:window-maximized="1"
     inkscape:current-layer="layer1" />
  <defs
     id="defs2" />
  <g
     inkscape:label="Camada 1"
     inkscape:groupmode="layer"
     id="layer1">
    <g
       aria-label="ONIUM"
       id="text1574"
       style="font-weight:800;font-size:33.626px;line-height:1.25;font-family:Rubik;-inkscape-font-specification:'Rubik Ultra-Bold';stroke-width:0.840651;fill:#373748">
      <path
         d="m 104.24826,152.06934 q -3.2281,0 -5.615546,-1.00878 -2.35382,-1.00878 -3.732486,-3.02634 -1.34504,-2.05119 -1.445918,-5.07753 -0.03363,-1.41229 -0.03363,-2.89183 0,-1.51317 0.03363,-2.99272 0.100878,-2.99271 1.445918,-5.0439 1.378666,-2.05118 3.766112,-3.09359 2.38745,-1.07603 5.58192,-1.07603 3.16084,0 5.54829,1.07603 2.38744,1.04241 3.76611,3.09359 1.37866,2.05119 1.44592,5.0439 0.0673,1.47955 0.0673,2.99272 0,1.47954 -0.0673,2.89183 -0.10088,3.02634 -1.47955,5.07753 -1.34504,2.01756 -3.73248,3.02634 -2.35382,1.00878 -5.54829,1.00878 z m 0,-5.71642 q 1.41229,0 2.32019,-0.84065 0.9079,-0.87428 0.94153,-2.75733 0.0673,-1.44592 0.0673,-2.79096 0,-1.37867 -0.0673,-2.79096 -0.0336,-1.24416 -0.47077,-2.05119 -0.40351,-0.80702 -1.14328,-1.17691 -0.70615,-0.36988 -1.64767,-0.36988 -0.94153,0 -1.6813,0.36988 -0.73978,0.36989 -1.17691,1.17691 -0.40352,0.80703 -0.43714,2.05119 -0.0336,1.41229 -0.0336,2.79096 0,1.34504 0.0336,2.79096 0.0673,1.88305 0.94153,2.75733 0.9079,0.84065 2.35382,0.84065 z"
         id="path34508"
         style="fill:#373748" />
      <path
         d="m 119.41356,151.73308 q -0.33626,0 -0.60527,-0.23538 -0.26901,-0.26901 -0.26901,-0.6389 v -21.78965 q 0,-0.36988 0.26901,-0.60526 0.26901,-0.26901 0.60527,-0.26901 h 4.47226 q 0.60526,0 0.87427,0.30263 0.26901,0.26901 0.36989,0.40351 l 6.92695,11.13021 v -10.96208 q 0,-0.36988 0.26901,-0.60526 0.26901,-0.26901 0.60527,-0.26901 h 5.07753 q 0.36988,0 0.60526,0.26901 0.26901,0.23538 0.26901,0.60526 v 21.78965 q 0,0.36989 -0.26901,0.6389 -0.23538,0.23538 -0.60526,0.23538 h -4.43864 q -0.63889,0 -0.9079,-0.26901 -0.26901,-0.30263 -0.36988,-0.43714 l -6.92696,-10.49131 v 10.32318 q 0,0.36989 -0.26901,0.6389 -0.23538,0.23538 -0.60527,0.23538 z"
         id="path34510"
         style="fill:#373748" />
      <path
         d="m 143.96052,151.73308 q -0.33626,0 -0.60527,-0.23538 -0.269,-0.26901 -0.269,-0.6389 v -21.78965 q 0,-0.36988 0.269,-0.60526 0.26901,-0.26901 0.60527,-0.26901 h 5.71642 q 0.36989,0 0.60527,0.26901 0.26901,0.23538 0.26901,0.60526 v 21.78965 q 0,0.36989 -0.26901,0.6389 -0.23538,0.23538 -0.60527,0.23538 z"
         id="path34512"
         style="fill:#373748" />
      <path
         d="m 165.04398,152.06934 q -3.12722,0 -5.51466,-0.97516 -2.35382,-0.97515 -3.69886,-3.02634 -1.31142,-2.08481 -1.31142,-5.24565 v -13.75304 q 0,-0.36988 0.26901,-0.60526 0.26901,-0.26901 0.60527,-0.26901 h 5.48104 q 0.36988,0 0.60526,0.26901 0.26901,0.23538 0.26901,0.60526 v 13.65216 q 0,1.71493 0.84065,2.5892 0.84065,0.87428 2.42107,0.87428 1.58043,0 2.38745,-0.87428 0.84065,-0.87427 0.84065,-2.5892 v -13.65216 q 0,-0.36988 0.26901,-0.60526 0.26901,-0.26901 0.63889,-0.26901 h 5.44741 q 0.36989,0 0.60527,0.26901 0.26901,0.23538 0.26901,0.60526 v 13.75304 q 0,3.16084 -1.31141,5.24565 -1.31142,2.05119 -3.66524,3.02634 -2.35382,0.97516 -5.44741,0.97516 z"
         id="path34514"
         style="fill:#373748" />
      <path
         d="m 180.37737,151.73308 q -0.36988,0 -0.63889,-0.23538 -0.26901,-0.26901 -0.26901,-0.6389 v -21.78965 q 0,-0.36988 0.26901,-0.60526 0.26901,-0.26901 0.63889,-0.26901 h 4.47226 q 0.60527,0 0.9079,0.33626 0.30264,0.33626 0.40351,0.47076 l 5.38016,9.34803 5.38016,-9.34803 q 0.10088,-0.1345 0.40352,-0.47076 0.30263,-0.33626 0.9079,-0.33626 h 4.47226 q 0.36988,0 0.60526,0.26901 0.26901,0.23538 0.26901,0.60526 v 21.78965 q 0,0.36989 -0.26901,0.6389 -0.23538,0.23538 -0.60526,0.23538 h -5.0439 q -0.36989,0 -0.6389,-0.23538 -0.23538,-0.26901 -0.23538,-0.6389 v -10.89482 l -3.02634,5.31291 q -0.16813,0.269 -0.43714,0.53801 -0.26901,0.26901 -0.7734,0.26901 h -2.05118 q -0.47077,0 -0.73977,-0.26901 -0.26901,-0.26901 -0.43714,-0.53801 l -3.02634,-5.31291 v 10.89482 q 0,0.36989 -0.26901,0.6389 -0.23538,0.23538 -0.60527,0.23538 z"
         id="path34516"
         style="fill:#373748" />
    </g>
    <g
       aria-label="computers"
       id="text3254"
       style="font-size:17.6551px;line-height:1.25;letter-spacing:3.175px;stroke-width:0.441377;fill:#9393ac">
      <path
         d="m 97.523802,168.02842 q -1.235857,0 -2.100957,-0.47669 -0.8651,-0.49434 -1.324132,-1.41241 -0.441378,-0.91806 -0.476688,-2.17157 -0.01765,-0.26483 -0.01765,-0.70621 0,-0.44138 0.01765,-0.7062 0.03531,-1.27117 0.476688,-2.17158 0.459032,-0.91806 1.324132,-1.39475 0.8651,-0.49435 2.100957,-0.49435 0.935721,0 1.606614,0.26483 0.688549,0.24717 1.129924,0.6709 0.44138,0.40606 0.6709,0.90041 0.22951,0.49434 0.24717,0.97103 0.0177,0.17655 -0.10593,0.28248 -0.12359,0.10593 -0.28248,0.10593 h -0.24718 q -0.17655,0 -0.26482,-0.0706 -0.0706,-0.0883 -0.1589,-0.30014 -0.370755,-1.00634 -1.023994,-1.39475 -0.635583,-0.40607 -1.571304,-0.40607 -1.200547,0 -1.995026,0.74151 -0.776824,0.72386 -0.82979,2.38344 -0.03531,0.61793 0,1.23586 0.05297,1.65958 0.82979,2.40109 0.794479,0.72386 1.995026,0.72386 0.935721,0 1.571304,-0.38841 0.653239,-0.40607 1.023994,-1.41241 0.0883,-0.21186 0.1589,-0.28248 0.0883,-0.0883 0.26482,-0.0883 H 100.79 q 0.15889,0 0.28248,0.10593 0.12358,0.10593 0.10593,0.28248 -0.0177,0.38841 -0.1589,0.77682 -0.14124,0.38841 -0.44138,0.75917 -0.28248,0.37076 -0.706199,0.65324 -0.423723,0.28248 -1.023996,0.44138 -0.582619,0.17655 -1.324133,0.17655 z"
         style="font-weight:300;font-family:Rubik;-inkscape-font-specification:'Rubik Light';fill:#9393ac"
         id="path34519" />
      <path
         d="m 110.17958,168.02842 q -1.27117,0 -2.13627,-0.52965 -0.84744,-0.52966 -1.30648,-1.44772 -0.44137,-0.91807 -0.47668,-2.04799 -0.0177,-0.26483 -0.0177,-0.74152 0,-0.47669 0.0177,-0.74151 0.0353,-1.14758 0.47668,-2.04799 0.45904,-0.91807 1.30648,-1.44772 0.8651,-0.52966 2.13627,-0.52966 1.27117,0 2.11861,0.52966 0.8651,0.52965 1.30648,1.44772 0.45903,0.90041 0.49434,2.04799 0.0177,0.26482 0.0177,0.74151 0,0.47669 -0.0177,0.74152 -0.0353,1.12992 -0.49434,2.04799 -0.44138,0.91806 -1.30648,1.44772 -0.84744,0.52965 -2.11861,0.52965 z m 0,-1.024 q 1.23586,0 2.01268,-0.79448 0.77682,-0.79448 0.82979,-2.29516 0.0177,-0.26483 0.0177,-0.65324 0,-0.38841 -0.0177,-0.65324 -0.053,-1.51834 -0.82979,-2.29516 -0.77682,-0.79448 -2.01268,-0.79448 -1.23586,0 -2.01268,0.79448 -0.77683,0.77682 -0.82979,2.29516 -0.0177,0.26483 -0.0177,0.65324 0,0.38841 0.0177,0.65324 0.053,1.50068 0.82979,2.29516 0.77682,0.79448 2.01268,0.79448 z"
         style="font-weight:300;font-family:Rubik;-inkscape-font-specification:'Rubik Light';fill:#9393ac"
         id="path34521" />
      <path
         d="m 120.0988,167.85187 q -0.17655,0 -0.28248,-0.10593 -0.10593,-0.10593 -0.10593,-0.28248 v -8.40383 q 0,-0.17655 0.10593,-0.28248 0.10593,-0.10593 0.28248,-0.10593 h 0.30014 q 0.17655,0 0.28248,0.10593 0.10593,0.10593 0.10593,0.28248 v 0.61793 q 0.44138,-0.56497 1.04165,-0.8651 0.61793,-0.3178 1.48303,-0.3178 1.97737,0 2.82482,1.65958 0.40607,-0.75917 1.18289,-1.20054 0.79448,-0.45904 1.81848,-0.45904 0.93572,0 1.67723,0.44138 0.75917,0.42372 1.18289,1.27117 0.44138,0.84744 0.44138,2.11861 v 5.13764 q 0,0.17655 -0.10593,0.28248 -0.10593,0.10593 -0.28248,0.10593 h -0.30014 q -0.17655,0 -0.28248,-0.10593 -0.10593,-0.10593 -0.10593,-0.28248 v -4.96109 q 0,-1.16523 -0.33545,-1.80082 -0.33545,-0.65324 -0.88275,-0.91806 -0.54731,-0.26483 -1.1829,-0.26483 -0.52965,0 -1.07696,0.26483 -0.54731,0.26482 -0.91806,0.91806 -0.3531,0.63559 -0.3531,1.80082 v 4.96109 q 0,0.17655 -0.10593,0.28248 -0.10594,0.10593 -0.28249,0.10593 h -0.30013 q -0.17655,0 -0.28248,-0.10593 -0.10594,-0.10593 -0.10594,-0.28248 v -4.96109 q 0,-1.16523 -0.3531,-1.80082 -0.3531,-0.65324 -0.90041,-0.91806 -0.54731,-0.26483 -1.14758,-0.26483 -0.52965,0 -1.07696,0.26483 -0.54731,0.26482 -0.91807,0.91806 -0.3531,0.63559 -0.3531,1.78317 v 4.97874 q 0,0.17655 -0.10593,0.28248 -0.10593,0.10593 -0.28248,0.10593 z"
         style="font-weight:300;font-family:Rubik;-inkscape-font-specification:'Rubik Light';fill:#9393ac"
         id="path34523" />
      <path
         d="m 138.79261,171.20634 q -0.17655,0 -0.28248,-0.10593 -0.10593,-0.10593 -0.10593,-0.28249 v -11.75829 q 0,-0.17655 0.10593,-0.28248 0.10593,-0.10593 0.28248,-0.10593 h 0.30014 q 0.17655,0 0.28248,0.10593 0.10593,0.10593 0.10593,0.28248 v 0.82979 q 0.44137,-0.60028 1.14758,-0.98869 0.72386,-0.40607 1.81847,-0.40607 1.04166,0 1.74786,0.37076 0.7062,0.3531 1.14758,0.95338 0.44138,0.60027 0.65324,1.34178 0.21186,0.74152 0.22952,1.51834 0.0177,0.26483 0.0177,0.58262 0,0.31779 -0.0177,0.58262 -0.0177,0.77682 -0.22952,1.51834 -0.21186,0.74151 -0.65324,1.34179 -0.44138,0.60027 -1.14758,0.97103 -0.7062,0.3531 -1.74786,0.3531 -1.09461,0 -1.81847,-0.40607 -0.70621,-0.40607 -1.14758,-0.98868 v 4.18425 q 0,0.17656 -0.10593,0.28249 -0.10593,0.10593 -0.28248,0.10593 z m 3.54867,-4.20192 q 1.04165,0 1.64193,-0.45903 0.60027,-0.45903 0.8651,-1.20055 0.26482,-0.74151 0.30013,-1.58896 0.0177,-0.49434 0,-0.98868 -0.0353,-0.84745 -0.30013,-1.58896 -0.26483,-0.74151 -0.8651,-1.20055 -0.60028,-0.45903 -1.64193,-0.45903 -1.00634,0 -1.62427,0.47669 -0.61792,0.47669 -0.91806,1.20055 -0.28248,0.7062 -0.31779,1.43006 -0.0177,0.26482 -0.0177,0.68855 0,0.42372 0.0177,0.68855 0.0177,0.7062 0.31779,1.39475 0.31779,0.68855 0.93572,1.14758 0.63558,0.45903 1.60661,0.45903 z"
         style="font-weight:300;font-family:Rubik;-inkscape-font-specification:'Rubik Light';fill:#9393ac"
         id="path34525" />
      <path
         d="m 155.26188,168.02842 q -1.20054,0 -1.99502,-0.512 -0.77683,-0.52965 -1.16524,-1.43006 -0.37076,-0.90041 -0.37076,-2.01268 v -5.01405 q 0,-0.17655 0.10593,-0.28248 0.10594,-0.10593 0.28249,-0.10593 h 0.30013 q 0.17655,0 0.28248,0.10593 0.10593,0.10593 0.10593,0.28248 v 4.92577 q 0,3.01902 2.63061,3.01902 1.25352,0 2.01269,-0.79448 0.75917,-0.81213 0.75917,-2.22454 v -4.92577 q 0,-0.17655 0.10593,-0.28248 0.10593,-0.10593 0.28248,-0.10593 h 0.30013 q 0.17656,0 0.28249,0.10593 0.10593,0.10593 0.10593,0.28248 v 8.40383 q 0,0.17655 -0.10593,0.28248 -0.10593,0.10593 -0.28249,0.10593 h -0.30013 q -0.17655,0 -0.28248,-0.10593 -0.10593,-0.10593 -0.10593,-0.28248 v -0.82979 q -0.47669,0.61792 -1.14759,1.00634 -0.65323,0.38841 -1.80082,0.38841 z"
         style="font-weight:300;font-family:Rubik;-inkscape-font-specification:'Rubik Light';fill:#9393ac"
         id="path34527" />
      <path
         d="m 168.412,167.85187 q -0.91806,0 -1.44772,-0.38841 -0.52965,-0.38842 -0.74151,-1.05931 -0.21186,-0.67089 -0.21186,-1.50068 v -5.20826 h -1.3771 q -0.17655,0 -0.28248,-0.10593 -0.10593,-0.10593 -0.10593,-0.28248 v -0.24717 q 0,-0.17655 0.10593,-0.28248 0.10593,-0.10593 0.28248,-0.10593 h 1.3771 v -2.96606 q 0,-0.17655 0.10593,-0.28248 0.10593,-0.10593 0.28248,-0.10593 h 0.30014 q 0.17655,0 0.28248,0.10593 0.10593,0.10593 0.10593,0.28248 v 2.96606 h 2.18923 q 0.17655,0 0.28248,0.10593 0.10593,0.10593 0.10593,0.28248 v 0.24717 q 0,0.17655 -0.10593,0.28248 -0.10593,0.10593 -0.28248,0.10593 h -2.18923 v 5.13764 q 0,0.93572 0.30014,1.46537 0.31779,0.52965 1.11227,0.52965 h 0.95337 q 0.17655,0 0.28248,0.10593 0.10593,0.10593 0.10593,0.28248 v 0.24718 q 0,0.17655 -0.10593,0.28248 -0.10593,0.10593 -0.28248,0.10593 z"
         style="font-weight:300;font-family:Rubik;-inkscape-font-specification:'Rubik Light';fill:#9393ac"
         id="path34529" />
      <path
         d="m 178.24296,168.02842 q -1.71254,0 -2.71888,-1.11227 -1.00634,-1.12993 -1.14759,-2.9484 -0.0177,-0.26483 -0.0177,-0.70621 0,-0.44138 0.0177,-0.7062 0.0883,-1.20055 0.56497,-2.11861 0.47669,-0.91807 1.30648,-1.43007 0.84744,-0.512 1.99502,-0.512 1.23586,0 2.10096,0.54731 0.8651,0.54731 1.32413,1.57131 0.47669,1.02399 0.47669,2.4364 v 0.26483 q 0,0.17655 -0.12359,0.28248 -0.10593,0.10593 -0.28248,0.10593 h -6.28521 q 0,0 0,0.0706 0,0.0706 0,0.10593 0.0353,0.79448 0.37075,1.51834 0.33545,0.7062 0.95338,1.16524 0.61793,0.44137 1.46537,0.44137 0.75917,0 1.25351,-0.22951 0.512,-0.22952 0.81214,-0.49435 0.30013,-0.28248 0.38841,-0.42372 0.1589,-0.22951 0.24717,-0.26483 0.0883,-0.053 0.28248,-0.053 h 0.28249 q 0.15889,0 0.26482,0.10593 0.12359,0.0883 0.10593,0.24717 -0.0177,0.24717 -0.28248,0.61793 -0.24717,0.3531 -0.72386,0.7062 -0.45903,0.35311 -1.12992,0.58262 -0.6709,0.22952 -1.50069,0.22952 z m -2.7895,-5.31419 h 5.61432 v -0.0706 q 0,-0.88275 -0.33545,-1.58896 -0.33545,-0.7062 -0.97103,-1.11227 -0.63558,-0.42372 -1.51834,-0.42372 -0.88275,0 -1.51834,0.42372 -0.61793,0.40607 -0.95337,1.11227 -0.31779,0.70621 -0.31779,1.58896 z"
         style="font-weight:300;font-family:Rubik;-inkscape-font-specification:'Rubik Light';fill:#9393ac"
         id="path34531" />
      <path
         d="m 188.03861,167.85187 q -0.17655,0 -0.28248,-0.10593 -0.10593,-0.10593 -0.10593,-0.28248 v -8.38618 q 0,-0.17655 0.10593,-0.28248 0.10593,-0.12358 0.28248,-0.12358 h 0.28249 q 0.17655,0 0.28248,0.12358 0.12358,0.10593 0.12358,0.28248 v 0.81214 q 0.31779,-0.61793 0.91807,-0.91807 0.60027,-0.30013 1.48303,-0.30013 h 0.65324 q 0.17655,0 0.28248,0.10593 0.10593,0.10593 0.10593,0.28248 v 0.24717 q 0,0.17655 -0.10593,0.28248 -0.10593,0.10593 -0.28248,0.10593 h -0.75917 q -1.05931,0 -1.67724,0.61793 -0.61793,0.61793 -0.61793,1.67723 v 5.47309 q 0,0.17655 -0.12358,0.28248 -0.10593,0.10593 -0.28248,0.10593 z"
         style="font-weight:300;font-family:Rubik;-inkscape-font-specification:'Rubik Light';fill:#9393ac"
         id="path34533" />
      <path
         d="m 199.88226,168.02842 q -0.91806,0 -1.58896,-0.24717 -0.65323,-0.24717 -1.07696,-0.58262 -0.42372,-0.3531 -0.63558,-0.68855 -0.19421,-0.33545 -0.21186,-0.512 -0.0177,-0.1942 0.12358,-0.28248 0.14124,-0.10593 0.26483,-0.10593 h 0.26483 q 0.10593,0 0.17655,0.0353 0.0883,0.0353 0.21186,0.19421 0.22952,0.30013 0.52965,0.58261 0.30014,0.26483 0.75917,0.42373 0.47669,0.15889 1.18289,0.15889 1.05931,0 1.74786,-0.40606 0.68855,-0.40607 0.68855,-1.20055 0,-0.49434 -0.28248,-0.79448 -0.26483,-0.30014 -0.91807,-0.52965 -0.65324,-0.22952 -1.76551,-0.47669 -1.11227,-0.26483 -1.71254,-0.63558 -0.58262,-0.37076 -0.79448,-0.84745 -0.21187,-0.49434 -0.21187,-1.05931 0,-0.61792 0.35311,-1.20054 0.3531,-0.60028 1.04165,-0.97103 0.7062,-0.38842 1.76551,-0.38842 0.8651,0 1.46537,0.22952 0.61793,0.22952 1.00634,0.56496 0.38841,0.3178 0.56496,0.63559 0.19421,0.31779 0.21187,0.512 0.0177,0.17655 -0.10593,0.28248 -0.12359,0.10593 -0.28249,0.10593 h -0.26482 q -0.14124,0 -0.22952,-0.053 -0.0883,-0.0706 -0.1589,-0.17655 -0.17655,-0.28248 -0.42372,-0.52965 -0.24717,-0.24717 -0.67089,-0.38841 -0.40607,-0.1589 -1.11227,-0.1589 -1.05931,0 -1.57131,0.44138 -0.51199,0.42372 -0.51199,1.09461 0,0.38842 0.21186,0.68855 0.21186,0.28248 0.79448,0.52966 0.58261,0.22951 1.69489,0.49434 1.12992,0.24717 1.78316,0.61793 0.65324,0.3531 0.91807,0.84744 0.28248,0.49434 0.28248,1.16524 0,0.7062 -0.40607,1.30648 -0.38841,0.60027 -1.18289,0.97103 -0.77683,0.3531 -1.92441,0.3531 z"
         style="font-weight:300;font-family:Rubik;-inkscape-font-specification:'Rubik Light';fill:#9393ac"
         id="path34535" />
    </g>
    <g
       id="g34371"
       transform="translate(8.2481262,23.172695)"
       style="fill:#9393ac">
      <path
         style="color:#000000;fill:#9393ac;-inkscape-stroke:none"
         d="m 140.25195,15.621094 -14.3457,8.283203 V 40.46875 l 14.3457,8.283203 0.25586,-0.148437 14.08985,-8.134766 V 23.904297 Z m 0,1.18164 13.32422,7.691407 v 15.384765 l -13.32422,7.691406 -13.32422,-7.691406 V 24.494141 Z"
         id="path32704" />
      <path
         style="color:#000000;fill:#9393ac;-inkscape-stroke:none"
         d="m 139.99609,63.693359 -13.83398,7.986328 0.51172,0.886719 13.83398,-7.988281 z"
         id="path32786" />
      <path
         style="color:#000000;fill:#9393ac;-inkscape-stroke:none"
         d="m 139.74023,48.160156 v 16.271485 l 14.08985,8.134765 0.51172,-0.886719 -13.57813,-7.839843 V 48.160156 Z"
         id="path32788" />
      <path
         style="color:#000000;fill:#9393ac;-inkscape-stroke:none"
         d="m 112.58203,63.544922 -14.345702,8.283203 v 16.564453 l 14.345702,8.283203 0.25586,-0.146484 14.08984,-8.136719 V 71.828125 Z m 0,1.18164 13.32422,7.691407 V 87.802734 L 112.58203,95.494141 99.259766,87.802734 V 72.417969 Z"
         id="path32790" />
      <path
         style="color:#000000;fill:#9393ac;-inkscape-stroke:none"
         d="m 167.92187,63.544922 -14.3457,8.283203 v 16.564453 l 14.3457,8.283203 0.25586,-0.146484 14.08985,-8.136719 V 71.828125 Z m 0,1.18164 13.32227,7.691407 v 15.384765 l -13.32227,7.691407 -13.32421,-7.691407 V 72.417969 Z"
         id="path32794" />
    </g>
  </g>
</svg>
